<svg width="17" height="16" viewBox="0 0 17 16" fill="none" xmlns="http://www.w3.org/2000/svg">
<path fill-rule="evenodd" clip-rule="evenodd" d="M8.13403 16C12.5523 16 16.134 12.4183 16.134 8C16.134 3.58172 12.5523 0 8.13403 0C3.71576 0 0.134033 3.58172 0.134033 8C0.134033 12.4183 3.71576 16 8.13403 16ZM11.634 7C12.4625 7 13.134 6.32843 13.134 5.5C13.134 4.67157 12.4625 4 11.634 4C10.8056 4 10.134 4.67157 10.134 5.5C10.134 6.32843 10.8056 7 11.634 7ZM6.13403 5.5C6.13403 6.32843 5.46246 7 4.63403 7C3.80561 7 3.13403 6.32843 3.13403 5.5C3.13403 4.67157 3.80561 4 4.63403 4C5.46246 4 6.13403 4.67157 6.13403 5.5ZM4.43433 11.0697L3.13403 12.5H13.134L11.8337 11.0697C9.84993 8.88749 6.41813 8.88749 4.43433 11.0697Z" fill="#D4D4D4"/>
</svg>
